<svg fill="none"><svg viewBox="0 0 24 24" xmlns="http://www.w3.org/2000/svg"><path clip-rule="evenodd" d="m21.9964 8.37513h-4.2346c-1.9707.00346-3.5671 1.56001-3.5707 3.48147-.0027 1.9257 1.5956 3.4892 3.5707 3.4918h4.2382v.3059c0 3.3593-2.0364 5.3457-5.4827 5.3457h-9.03374c-3.44712 0-5.48356-1.9864-5.48356-5.3457v-7.31644c0-3.35924 2.03644-5.33786 5.48356-5.33786h9.03024c3.4462 0 5.4826 1.97862 5.4826 5.33786zm-15.25684-.0078h5.64004.0035.0071c.4222-.00174.7636-.33714.7618-.74968-.0018-.41167-.3467-.74447-.7689-.74274h-5.64354c-.41956.00173-.76.33367-.76178.74361-.00178.41167.33955.74707.76178.74881z" fill-rule="evenodd"/><path d="m16.0374 12.2967c.2091.9511 1.0431 1.6204 1.9952 1.603h3.2499c.3962 0 .7175-.3281.7175-.7337v-2.5315c-.0009-.4047-.3213-.73364-.7175-.73451h-3.3264c-1.083.00348-1.9578.90241-1.9561 2.01031 0 .1296.0128.2593.0374.3864z" opacity=".4"/><circle cx="18" cy="11.9" r="1"/></svg><svg viewBox="0 0 24 24" xmlns="http://www.w3.org/2000/svg"><path d="m11.9968 15.1746c-4.31304 0-7.99704.68-7.99704 3.4 0 2.721 3.661 3.425 7.99704 3.425 4.313 0 7.997-.679 7.997-3.4s-3.66-3.425-7.997-3.425z"/><path d="m11.9967 12.5837c2.938 0 5.292-2.355 5.292-5.292s-2.354-5.292-5.292-5.292c-2.93699 0-5.29199 2.355-5.29199 5.292s2.355 5.292 5.29199 5.292z" opacity=".4"/></svg><svg fill="none" viewBox="0 0 17 17" xmlns="http://www.w3.org/2000/svg"><path d="m2.12533 2.125h12.74997c.3912 0 .7084.31713.7084.70833v11.33337c0 .3912-.3172.7083-.7084.7083h-12.74997c-.3912 0-.70834-.3171-.70834-.7083v-11.33337c0-.3912.31714-.70833.70834-.70833zm6.41792 6.15039-4.54281-3.85702-.9169 1.07993 5.46857 4.643 5.37009-4.64735-.9271-1.07123z" fill="#fff"/></svg></svg>